<?xml version="1.0" encoding="UTF-8"?>
<svg id="Layer_1" data-name="Layer 1" xmlns="http://www.w3.org/2000/svg" viewBox="0 0 1011 1011">
  <defs>
    <style>
      .cls-1 {
        fill: #fff;
      }
    </style>
  </defs>
  <path class="cls-1" d="M1011,528v483h-482.9l50.32-5.17c222.92-32.18,399.48-210.89,428.44-434.48l4.14-43.36Z"/>
  <path class="cls-1" d="M528.1,0h482.9v483l-5.17-50.33C973.66,209.7,794.99,33.1,571.45,4.14l-43.35-4.14Z"/>
  <path class="cls-1" d="M483.11,1011H.2v-483l5.17,50.33c32.17,222.96,210.85,399.56,434.39,428.52l43.35,4.14Z"/>
  <path d="M528.1,0l43.35,4.14c223.54,28.96,402.22,205.56,434.39,428.52l5.17,50.33v45l-4.14,43.36c-28.95,223.59-205.52,402.3-428.44,434.48l-50.32,5.17h-44.99l-43.35-4.14C216.21,977.9,37.54,801.3,5.37,578.33L.2,528c.47-14.95-.64-30.07,0-45C11.27,223.49,223.63,11.07,483.11,0h44.99ZM852.68,159.35c-189.63-190.2-498.69-190.54-689.71-2.29C-49.67,366.61-25.65,717.17,212.25,896.41c199.53,150.33,480.31,125.27,650.83-55.9,180.85-192.14,175.66-494.56-10.4-681.17Z"/>
  <path class="cls-1" d="M852.68,159.35c186.05,186.61,191.25,489.02,10.4,681.17-170.52,181.17-451.31,206.23-650.83,55.9C-25.65,717.17-49.67,366.61,162.97,157.06c191.02-188.25,500.08-187.9,689.71,2.29ZM879.61,807.58c180.45-224.18,125.64-554.75-116.64-707.99C587.39-11.47,357.66,3.59,198.69,137.03-41.09,338.29-27.93,711.67,225.84,894.82c205.86,148.57,495.02,109.98,653.76-87.24Z"/>
  <path d="M879.61,807.58c-158.74,197.21-447.9,235.81-653.76,87.24C-27.93,711.67-41.09,338.29,198.69,137.03,357.66,3.59,587.39-11.47,762.97,99.58c242.28,153.24,297.09,483.82,116.64,707.99ZM848.45,190.58C648.63-26.44,299.82-4.88,128.36,234.69-10.57,428.8,20.62,697.41,199.15,854.51c166.92,146.88,415.7,155.07,591.79,18.88,215.27-166.49,242.32-482.1,57.51-682.81Z"/>
  <path class="cls-1" d="M848.45,190.58c184.81,200.72,157.76,516.32-57.51,682.81-176.09,136.19-424.87,128-591.79-18.88C20.62,697.41-10.57,428.8,128.36,234.69,299.82-4.88,648.63-26.44,848.45,190.58ZM569.25,139.14c2.97-.29,5.64-2.8,7.27-5.21,3.61-5.33,6.41-27.9,5.59-34.46-1.26-10.08-8.9-12.87-17.65-14.35-13.83-2.34-28.41-2.5-42.35-4.11l-1.58,13.01,9.3,2.43-9.75,82.54c2.84-.13,15.38,2.88,16.55,1.05l4.4-40.41c.92-1.63,11.4-.2,12.09,1.02l4.06,42.23,15.88,2.1-3.84-45.85ZM501.11,177.99l-9.12-80.37c-3.09-14.98-10.75-15.25-24.36-14.61-12.79.6-25.74,3.64-38.55,4.45l1.1,13.48,8.94-.94,9.01,84,15.91-2.08-2.91-25.92,20.95-1.96,3.05,25.96,16-2.01ZM397.12,95l-15.86,5.13-3.14,47.86-14.98-40.56-24.01,6.57,3.97,13.58,9.03-2.59,27.61,79.08,15.36-5.64-13.96-41.44,31.95,35.49,15.03-4.5-.95-3.54-32.84-37.15,2.79-52.3ZM639.08,102.01l-23.94-6.97-4.06,12.95,7.94,2.07c.29,1.07.07,2.14-.16,3.2-4.13,18.74-19.62,45.53-21.79,63.21-1.43,11.65,3.19,15.82,13.05,20,10.78,4.58,27.62,11.65,35.4-.54l28.53-80.48c.23-2.3-.3-1.07-1.47-1.45-2.13-.7-12.5-4.57-13.4-3.92l-26.72,75.71c-2.93,3.92-20.1-.86-18.73-7.59l25.36-76.19ZM713.07,199.99l13.88-56.34-23.26-14.58-7.64,11.41,8,5.01-43.84,70.87,13.78,8.57,30.07-47.94-15.07,58.39,15.48,8.52,51.49-82.43-13.92-8.05-28.96,46.57ZM315.78,139.36c-8.81-7.96-16.15-3.89-24.94.84-11.23,6.04-22.72,14.61-33.67,21.38l6.95,10.98,6.71-3.43,2.32,1.37,43.48,69.31,12.57-9.29-13-21.03,17.44-11.48,14.09,21.92,13.21-8.42-45.16-72.15ZM698.64,291.42c-159.03-142.01-414.56-67.32-469.41,138.16-59.86,224.24,154.3,424.08,373.62,346.69,204.13-72.02,257.84-340.14,95.79-484.85ZM247.16,788l15.86-26.73c.6-3.89-6.31-6.5-8.37-9.25l-3.36,4.66,2.76,4.02-20.75,35.65,8.21,6.58,24.62-19.93-16.96,27.5,8.47,7.47,36.41-31.32-3.63-3.51-3.01.61-23.27,18.25,15.85-26.67-7.36-7.37-25.48,20.04ZM756.47,772.58c-1.62-1.67-7.48-9.23-9.05-9.51l-8.72,6.85c-2.3,1.97,3.04,3.3,3.86,6.06l3.12-2.92,25.31,25.48c8.49,2.79,13.58-6.09,18.86-11.04-5.42-11.42-9.55,4.5-16.12,3.5-5.41-6.39-11.43-12.41-17.27-18.43ZM720.56,785.09l-9.31,7.4,3.4,4.44,4.42-1.5c4.78,4.39,17.62,26.18,22,28.04,2.6,1.1,5.15.72,7.7-.26,1.36-.52,11.47-8.36,11.84-9.21s-2.37-5.12-3.9-4.9c-3.65,1.15-8.57,8.97-12.67,6.42l-23.49-30.43ZM311.13,798.02l-8.94-5.62c-1.62-.43-4.63,3.27-4.04,5.06l2.98,1.56-22.52,33-.03,2,5.06,3.97,27.49-39.96ZM686.92,817.1l20.71,33.88,6.25-4.47-5.68-9.88,7.38-5.44,7.12,9.76,6.29-3.55-20.07-33.76c-8.08-10.53-21.06,5.96-29.79,8.45.38,7.93,6.54,4.31,7.79,5.01ZM324.15,837l5.81-26.41-11.33-7.57-3.53,6.44,4.02,2.04-20.06,35.92,6.09,3.13,13.98-22.54-6.07,27.38,7.44,3.48,23.51-39.55c.15-1.78-4.88-5.19-6.91-3.87-2.56,1.66-8.6,18.97-12.96,21.56ZM364.11,827.06l-12.96-5.06-1.95,5.4,3.8,3.07-15.88,36.09c-.33,2.04,5.89,3.87,6.86,3.3l11.14-24.86-3.02,27.5c.21,2.69,5.18,4.23,7.55,4.55l19.36-41.74c.18-1.97-5.46-4.81-6.9-3.9l-10.97,23.58,2.97-27.94ZM650.02,828.03l-24.98,9.52,2.11,5.4,4.91-.95,7.02,19.01,13.97-5,2.91,12.36-11.9,4.65,3.48,6.86c4.3-3.02,13.81-3.92,16.3-8.6,3.52-6.62-5.58-18.28-6.8-25.28l-13.92,4.96-3.59-11.07c.31-2.77,9.75-4.89,12.53-5.91l-2.05-5.95ZM410.09,844.04l-23.95-7.05-.99,6.98,2.89.07c.19,10.2-9.58,25.12-9.85,34.57-.23,7.95,12.34,9.12,17.93,11.39l2.01-7c-2.47-.37-12.02-2.27-11.84-5.31l3.86-11.7,4.97,2.01,1.09-6.42-3.92-2.04,3.99-11.39,11.83,2.85,1.98-6.96ZM619.08,846.99l-2.59-6.91-22.47,6.49,1.01,6.01,5.04-.58c2.05,6.76,6.73,31.68,10.95,35.55s14.39-.08,19.11-2.17l-1.08-6.38c-12.38,5.26-13.82,3.3-16.05-9.45l4-2.16-.95-5.39-4.37.95c-1.53-.45-4.48-10.85-3.17-12.99l10.56-2.96ZM438.11,877c6.8-1.22,9.8-18.64,6.49-22.99-2.99-3.93-20.82-6.36-26.36-6.89l-1.04,5.79,3.93,1.67-9.02,39.41,7.99,2.02,4.1-19.9c2.68-.33,5.32-.79,5.91,2.4s-.76,18.37.11,19.4l7.89,1.11v-22ZM585.08,849l-7.53,1.96-4.47,21.03-3.99-19.99-13,2.01,1.01,7,4.99-1,7.07,39.93,8.01-1.53-3.06-19.4c4.17,3.12,7.98,14.52,11.42,17.07,2.76,2.05,5.41-.36,8.56-.08l-13.46-21.88,4.46-25.11ZM552.1,903c-2.68-9.36.07-38.97-5.56-44.95-4.77-5.07-21.61.61-28.45-1.06l.43,6.08,4.54.96,3.04,40.97,8-1.01-1.01-13h10.01s.99,12.01.99,12.01h8.01ZM510.11,857.99l-30.01-1v7.01s13.01-.01,13.01-.01l-1.01,41.01h8.01s.99-41.01.99-41.01h9.01s0-6,0-6Z"/>
  <path d="M698.64,291.42c162.05,144.71,108.34,412.83-95.79,484.85-219.32,77.38-433.47-122.45-373.62-346.69,54.85-205.48,310.38-280.17,469.41-138.16ZM720.06,675l-212.97-443-213.95,443h90.48l122.98-253,82.48,170h-127.47l-40.49,83h298.94ZM673.65,311.42c-36.97-32.26-92.47-57.71-141.81-60.67-.59-.04-2.61-1.85-1.72.73,2.16,6.33,8.19,13.56,10.14,20.36,68.46,8.5,131.36,50.91,167.23,109.25,44.9,73.02,46.66,167.12,3.59,241.49-.58,2.85,8.31,21.38,9.49,21.41,70.66-106.74,48.69-249.14-46.91-332.56ZM482.1,251.01c-72.77,5.42-141.25,46.24-183.35,105.1-54.65,76.42-63.03,176.95-21.75,261.53,1.65,3.37,13.96,26.38,15.64,26.34l9.48-20.4c-38.23-67.26-41.78-149.83-8.84-219.94,32.98-70.19,101.88-121.1,178.83-132.13l9.99-20.5ZM684.07,688h-28.49c-.68,0-9.03,7.05-10.78,8.22-85.9,57.66-185.39,61.05-272.39,3.01-2.28-1.52-13.84-11.23-14.77-11.23h-28.49c93.78,96.25,261.15,96.22,354.93,0Z"/>
  <polygon points="713.07 199.99 742.03 153.43 755.95 161.48 704.46 243.91 688.98 235.39 704.05 177 673.98 224.94 660.2 216.37 704.04 145.5 696.05 140.48 703.69 129.08 726.95 143.66 713.07 199.99"/>
  <path d="M315.78,139.36l45.16,72.15-13.21,8.42-14.09-21.92-17.44,11.48,13,21.03-12.57,9.29-43.48-69.31-2.32-1.37-6.71,3.43-6.95-10.98c10.94-6.77,22.43-15.34,33.67-21.38,8.79-4.73,16.13-8.79,24.94-.84ZM326.02,187.89l-21.31-35.95c-4.34-3.26-17.05,5.43-17.14,9.56-.05,2.11,19.66,35.18,21.57,36.07l16.89-9.68Z"/>
  <path d="M501.11,177.99l-16,2.01-3.05-25.96-20.95,1.96,2.91,25.92-15.91,2.08-9.01-84-8.94.94-1.1-13.48c12.81-.82,25.76-3.86,38.55-4.45,13.61-.63,21.28-.36,24.36,14.61l9.12,80.37ZM474.88,98.23c-2.25-2.32-18.19-1.66-18.87,3.26l4.18,41.43,19.91-1.93c1.56-1.49-3.71-41.21-5.22-42.76Z"/>
  <path d="M569.25,139.14l3.84,45.85-15.88-2.1-4.06-42.23c-.69-1.23-11.17-2.65-12.09-1.02l-4.4,40.41c-1.17,1.83-13.71-1.19-16.55-1.05l9.75-82.54-9.3-2.43,1.58-13.01c13.94,1.62,28.53,1.77,42.35,4.11,8.74,1.48,16.39,4.28,17.65,14.35.82,6.56-1.98,29.13-5.59,34.46-1.63,2.41-4.3,4.92-7.27,5.21ZM543.09,126.01c5.41-1.04,16.74,3.98,20.07-1.44.95-5.23,4.89-21.51.5-24.64-2.11-1.5-12.2-2.44-15.37-2.72-1.13-.1-1.94-.45-2.74.74l-2.46,28.05Z"/>
  <path d="M639.08,102.01l-25.36,76.19c-1.37,6.73,15.8,11.51,18.73,7.59l26.72-75.71c.9-.65,11.28,3.22,13.4,3.92,1.17.38,1.7-.84,1.47,1.45l-28.53,80.48c-7.78,12.19-24.62,5.11-35.4.54-9.86-4.19-14.48-8.35-13.05-20,2.17-17.68,17.66-44.47,21.79-63.21.23-1.06.46-2.13.16-3.2l-7.94-2.07,4.06-12.95,23.94,6.97Z"/>
  <polygon points="397.12 95 394.33 147.3 427.17 184.45 428.12 187.99 413.09 192.49 381.14 157 395.1 198.44 379.73 204.07 352.12 125 343.1 127.59 339.13 114 363.14 107.44 378.12 148 381.26 100.13 397.12 95"/>
  <path d="M247.16,788l25.48-20.04,7.36,7.37-15.85,26.67,23.27-18.25,3.01-.61,3.63,3.51-36.41,31.32-8.47-7.47,16.96-27.5-24.62,19.93-8.21-6.58,20.75-35.65-2.76-4.02,3.36-4.66c2.06,2.76,8.97,5.37,8.37,9.25l-15.86,26.73Z"/>
  <path d="M324.15,837c4.36-2.59,10.4-19.9,12.96-21.56,2.03-1.32,7.05,2.09,6.91,3.87l-23.51,39.55-7.44-3.48,6.07-27.38-13.98,22.54-6.09-3.13,20.06-35.92-4.02-2.04,3.53-6.44,11.33,7.57-5.81,26.41Z"/>
  <path d="M364.11,827.06l-2.97,27.94,10.97-23.58c1.44-.91,7.08,1.93,6.9,3.9l-19.36,41.74c-2.37-.32-7.34-1.85-7.55-4.55l3.02-27.5-11.14,24.86c-.97.56-7.2-1.26-6.86-3.3l15.88-36.09-3.8-3.07,1.95-5.4,12.96,5.06Z"/>
  <path d="M552.1,903h-8.01s-.99-12.01-.99-12.01h-10.01s1.01,13,1.01,13l-8,1.01-3.04-40.97-4.54-.96-.43-6.08c6.83,1.67,23.67-4.01,28.45,1.06,5.63,5.98,2.88,35.59,5.56,44.95ZM532.09,885.01l8.36-.14,1.5-1.5c.27-3.55.74-19.12-2.49-20.23-1.82-.62-7.49-.72-8.23,1.5l.85,20.37Z"/>
  <path d="M686.92,817.1c-1.25-.7-7.41,2.91-7.79-5.01,8.73-2.49,21.71-18.98,29.79-8.45l20.07,33.76-6.29,3.55-7.12-9.76-7.38,5.44,5.68,9.88-6.25,4.47-20.71-33.88ZM699.81,808.15c-3.18.46-6.13,2.68-5.57,6.11.34,2.12,9,15.82,11.16,15.61,1.13-.11,6.6-3.51,6.55-5.17-2.34-3.4-7.82-17.17-12.13-16.54Z"/>
  <path d="M438.11,877v22l-7.89-1.11c-.87-1.02.5-16.12-.11-19.4s-3.22-2.72-5.91-2.4l-4.1,19.9-7.99-2.02,9.02-39.41-3.93-1.67,1.04-5.79c5.54.53,23.38,2.96,26.36,6.89,3.31,4.35.31,21.77-6.49,22.99ZM437.99,858.12l-9.88-2.13c.56,7.14-6.85,14.56,4.64,14.97,4.69.17,5.18-9.05,5.23-12.84Z"/>
  <path d="M585.08,849l-4.46,25.11,13.46,21.88c-3.14-.28-5.79,2.13-8.56.08-3.44-2.56-7.26-13.95-11.42-17.07l3.06,19.4-8.01,1.53-7.07-39.93-4.99,1-1.01-7,13-2.01,3.99,19.99,4.47-21.03,7.53-1.96Z"/>
  <path d="M650.02,828.03l2.05,5.95c-2.79,1.02-12.22,3.14-12.53,5.91l3.59,11.07,13.92-4.96c1.22,7,10.32,18.66,6.8,25.28-2.49,4.67-12,5.58-16.3,8.6l-3.48-6.86,11.9-4.65-2.91-12.36-13.97,5-7.02-19.01-4.91.95-2.11-5.4,24.98-9.52Z"/>
  <path d="M410.09,844.04l-1.98,6.96-11.83-2.85-3.99,11.39,3.92,2.04-1.09,6.42-4.97-2.01-3.86,11.7c-.18,3.03,9.37,4.94,11.84,5.31l-2.01,7c-5.59-2.27-18.15-3.44-17.93-11.39.27-9.45,10.05-24.37,9.85-34.57l-2.89-.07.99-6.98,23.95,7.05Z"/>
  <path d="M619.08,846.99l-10.56,2.96c-1.32,2.14,1.64,12.54,3.17,12.99l4.37-.95.95,5.39-4,2.16c2.23,12.74,3.67,14.71,16.05,9.45l1.08,6.38c-4.72,2.09-14.97,5.97-19.11,2.17s-8.9-28.79-10.95-35.55l-5.04.58-1.01-6.01,22.47-6.49,2.59,6.91Z"/>
  <polygon points="510.11 857.99 510.11 864.01 501.1 863.99 500.11 905.01 492.1 905.01 493.11 863.99 480.1 864.01 480.1 856.99 510.11 857.99"/>
  <path d="M756.47,772.58c5.83,6.02,11.86,12.04,17.27,18.43,6.56,1,10.7-14.92,16.12-3.5-5.28,4.95-10.37,13.83-18.86,11.04l-25.31-25.48-3.12,2.92c-.82-2.76-6.16-4.1-3.86-6.06l8.72-6.85c1.58.27,7.43,7.84,9.05,9.51Z"/>
  <path d="M720.56,785.09l23.49,30.43c4.1,2.55,9.02-5.28,12.67-6.42,1.52-.22,4.27,4.04,3.9,4.9s-10.48,8.7-11.84,9.21c-2.56.97-5.1,1.36-7.7.26-4.37-1.86-17.22-23.66-22-28.04l-4.42,1.5-3.4-4.44,9.31-7.4Z"/>
  <path d="M311.13,798.02l-27.49,39.96-5.06-3.97.03-2,22.52-33-2.98-1.56c-.59-1.79,2.42-5.49,4.04-5.06l8.94,5.62Z"/>
  <polygon class="cls-1" points="720.06 675 421.12 675 461.61 592 589.08 592 506.61 422 383.63 675 293.14 675 507.09 232 720.06 675"/>
  <path class="cls-1" d="M673.65,311.42c95.6,83.42,117.57,225.82,46.91,332.56-1.18-.03-10.07-18.56-9.49-21.41,43.07-74.36,41.3-168.47-3.59-241.49-35.87-58.33-98.76-100.75-167.23-109.25-1.94-6.8-7.98-14.04-10.14-20.36-.88-2.58,1.13-.77,1.72-.73,49.35,2.96,104.85,28.41,141.81,60.67Z"/>
  <path class="cls-1" d="M482.1,251.01l-9.99,20.5c-76.95,11.04-145.85,61.95-178.83,132.13-32.94,70.11-29.39,152.67,8.84,219.94l-9.48,20.4c-1.69.04-14-22.96-15.64-26.34-41.28-84.59-32.9-185.12,21.75-261.53,42.1-58.86,110.58-99.68,183.35-105.1Z"/>
  <path class="cls-1" d="M684.07,688c-93.78,96.22-261.15,96.25-354.93,0h28.49c.93,0,12.49,9.71,14.77,11.23,87,58.04,186.49,54.65,272.39-3.01,1.74-1.17,10.1-8.22,10.78-8.22h28.49Z"/>
  <path class="cls-1" d="M326.02,187.89l-16.89,9.68c-1.91-.89-21.61-33.97-21.57-36.07.09-4.12,12.81-12.82,17.14-9.56l21.31,35.95Z"/>
  <path class="cls-1" d="M474.88,98.23c1.5,1.55,6.78,41.27,5.22,42.76l-19.91,1.93-4.18-41.43c.68-4.92,16.62-5.57,18.87-3.26Z"/>
  <path class="cls-1" d="M543.09,126.01l2.46-28.05c.8-1.2,1.6-.84,2.74-.74,3.17.28,13.26,1.21,15.37,2.72,4.39,3.12.45,19.4-.5,24.64-3.32,5.42-14.66.4-20.07,1.44Z"/>
  <path class="cls-1" d="M532.09,885.01l-.85-20.37c.74-2.22,6.41-2.12,8.23-1.5,3.23,1.1,2.76,16.68,2.49,20.23l-1.5,1.5-8.36.14Z"/>
  <path class="cls-1" d="M699.81,808.15c4.31-.63,9.79,13.14,12.13,16.54.05,1.66-5.42,5.06-6.55,5.17-2.16.21-10.81-13.48-11.16-15.61-.55-3.43,2.4-5.64,5.57-6.11Z"/>
  <path class="cls-1" d="M437.99,858.12c-.05,3.79-.54,13-5.23,12.84-11.49-.41-4.09-7.83-4.64-14.97l9.88,2.13Z"/>
</svg>